<mxfile host="Electron" agent="Mozilla/5.0 (Windows NT 10.0; Win64; x64) AppleWebKit/537.36 (KHTML, like Gecko) draw.io/24.7.8 Chrome/128.0.6613.36 Electron/32.0.1 Safari/537.36" version="24.7.8">
  <diagram name="Page-1" id="LLO-eIzP6vQ0NBbhdD1E">
    <mxGraphModel dx="1687" dy="984" grid="1" gridSize="10" guides="1" tooltips="1" connect="1" arrows="1" fold="1" page="1" pageScale="1" pageWidth="850" pageHeight="1100" math="0" shadow="0">
      <root>
        <mxCell id="0" />
        <mxCell id="1" parent="0" />
        <mxCell id="iXc4PCOMzG93QPrR9z8e-1" value="" style="rounded=0;whiteSpace=wrap;html=1;snapToPoint=1;arcSize=12;" parent="1" vertex="1">
          <mxGeometry x="320" y="50" width="120" height="310" as="geometry" />
        </mxCell>
        <mxCell id="iXc4PCOMzG93QPrR9z8e-4" value="PL" style="text;html=1;align=center;verticalAlign=middle;resizable=1;points=[];autosize=1;strokeColor=none;fillColor=none;strokeWidth=1;" parent="1" vertex="1">
          <mxGeometry x="205" y="100" width="40" height="20" as="geometry" />
        </mxCell>
        <mxCell id="iXc4PCOMzG93QPrR9z8e-6" value="P&lt;sub&gt;2,0&lt;/sub&gt;" style="text;html=1;align=center;verticalAlign=middle;resizable=1;points=[];autosize=1;strokeColor=none;fillColor=none;" parent="1" vertex="1">
          <mxGeometry x="311" y="145" width="50" height="30" as="geometry" />
        </mxCell>
        <mxCell id="iXc4PCOMzG93QPrR9z8e-10" value="Master&lt;div&gt;SoC&lt;/div&gt;" style="text;html=1;align=center;verticalAlign=middle;resizable=0;points=[];autosize=1;strokeColor=none;fillColor=none;" parent="1" vertex="1">
          <mxGeometry x="350" y="200" width="60" height="40" as="geometry" />
        </mxCell>
        <mxCell id="iXc4PCOMzG93QPrR9z8e-12" value="" style="verticalLabelPosition=bottom;shadow=0;dashed=0;align=center;html=1;verticalAlign=top;shape=mxgraph.electrical.logic_gates.logic_gate;operation=and;" parent="1" vertex="1">
          <mxGeometry x="240" y="100" width="80" height="40" as="geometry" />
        </mxCell>
        <mxCell id="iXc4PCOMzG93QPrR9z8e-20" value="" style="verticalLabelPosition=bottom;shadow=0;dashed=0;align=center;html=1;verticalAlign=top;shape=mxgraph.electrical.transistors.nmos;pointerEvents=1;strokeWidth=1;" parent="1" vertex="1">
          <mxGeometry x="541" y="258" width="30" height="44" as="geometry" />
        </mxCell>
        <mxCell id="iXc4PCOMzG93QPrR9z8e-21" value="" style="pointerEvents=1;verticalLabelPosition=bottom;shadow=0;dashed=0;align=center;html=1;verticalAlign=top;shape=mxgraph.electrical.signal_sources.protective_earth;strokeWidth=1;" parent="1" vertex="1">
          <mxGeometry x="560" y="300" width="20" height="15" as="geometry" />
        </mxCell>
        <mxCell id="iXc4PCOMzG93QPrR9z8e-22" value="" style="verticalLabelPosition=bottom;shadow=0;dashed=0;align=center;html=1;verticalAlign=top;shape=mxgraph.electrical.opto_electronics.led_2;pointerEvents=1;direction=south;strokeWidth=1;" parent="1" vertex="1">
          <mxGeometry x="561" y="237" width="21" height="32" as="geometry" />
        </mxCell>
        <mxCell id="iXc4PCOMzG93QPrR9z8e-23" value="" style="pointerEvents=1;verticalLabelPosition=bottom;shadow=0;dashed=0;align=center;html=1;verticalAlign=top;shape=mxgraph.electrical.resistors.resistor_2;direction=south;strokeWidth=1;" parent="1" vertex="1">
          <mxGeometry x="565" y="190" width="10" height="50" as="geometry" />
        </mxCell>
        <mxCell id="iXc4PCOMzG93QPrR9z8e-24" value="V&lt;sub&gt;dd&lt;/sub&gt;" style="verticalLabelPosition=top;verticalAlign=bottom;shape=mxgraph.electrical.signal_sources.vdd;shadow=0;dashed=0;align=center;strokeWidth=1;fontSize=24;html=1;flipV=1;noLabel=1;" parent="1" vertex="1">
          <mxGeometry x="562" y="181" width="16" height="12" as="geometry" />
        </mxCell>
        <mxCell id="iXc4PCOMzG93QPrR9z8e-25" value="V&lt;sub&gt;dd2&lt;/sub&gt;" style="text;html=1;align=center;verticalAlign=middle;resizable=0;points=[];autosize=1;strokeColor=none;fillColor=none;strokeWidth=1;" parent="1" vertex="1">
          <mxGeometry x="548" y="156" width="44" height="30" as="geometry" />
        </mxCell>
        <mxCell id="iXc4PCOMzG93QPrR9z8e-26" value="" style="endArrow=none;html=1;rounded=0;entryX=0.5;entryY=0;entryDx=0;entryDy=0;entryPerimeter=0;exitX=0;exitY=0.5;exitDx=0;exitDy=0;exitPerimeter=0;strokeWidth=1;" parent="1" source="iXc4PCOMzG93QPrR9z8e-23" target="iXc4PCOMzG93QPrR9z8e-24" edge="1">
          <mxGeometry width="50" height="50" relative="1" as="geometry">
            <mxPoint x="540" y="180.5" as="sourcePoint" />
            <mxPoint x="590" y="130.5" as="targetPoint" />
          </mxGeometry>
        </mxCell>
        <mxCell id="iXc4PCOMzG93QPrR9z8e-27" value="" style="endArrow=none;html=1;rounded=0;entryX=1;entryY=0.5;entryDx=0;entryDy=0;entryPerimeter=0;exitX=0;exitY=0.57;exitDx=0;exitDy=0;exitPerimeter=0;strokeWidth=1;" parent="1" source="iXc4PCOMzG93QPrR9z8e-22" target="iXc4PCOMzG93QPrR9z8e-23" edge="1">
          <mxGeometry width="50" height="50" relative="1" as="geometry">
            <mxPoint x="540" y="180.5" as="sourcePoint" />
            <mxPoint x="590" y="130.5" as="targetPoint" />
          </mxGeometry>
        </mxCell>
        <mxCell id="iXc4PCOMzG93QPrR9z8e-28" value="" style="endArrow=none;html=1;rounded=0;exitX=1;exitY=0.57;exitDx=0;exitDy=0;exitPerimeter=0;entryX=1;entryY=0;entryDx=0;entryDy=0;entryPerimeter=0;strokeWidth=1;" parent="1" source="iXc4PCOMzG93QPrR9z8e-22" target="iXc4PCOMzG93QPrR9z8e-20" edge="1">
          <mxGeometry width="50" height="50" relative="1" as="geometry">
            <mxPoint x="540" y="180.5" as="sourcePoint" />
            <mxPoint x="590" y="130.5" as="targetPoint" />
          </mxGeometry>
        </mxCell>
        <mxCell id="iXc4PCOMzG93QPrR9z8e-29" value="" style="endArrow=none;html=1;rounded=0;entryX=1;entryY=1;entryDx=0;entryDy=0;entryPerimeter=0;exitX=0.5;exitY=0;exitDx=0;exitDy=0;exitPerimeter=0;strokeWidth=1;" parent="1" source="iXc4PCOMzG93QPrR9z8e-21" target="iXc4PCOMzG93QPrR9z8e-20" edge="1">
          <mxGeometry width="50" height="50" relative="1" as="geometry">
            <mxPoint x="540" y="180.5" as="sourcePoint" />
            <mxPoint x="590" y="130.5" as="targetPoint" />
          </mxGeometry>
        </mxCell>
        <mxCell id="iXc4PCOMzG93QPrR9z8e-44" value="LB" style="text;html=1;align=center;verticalAlign=middle;resizable=1;points=[];autosize=1;strokeColor=none;fillColor=none;strokeWidth=1;" parent="1" vertex="1">
          <mxGeometry x="205" y="116" width="40" height="30" as="geometry" />
        </mxCell>
        <mxCell id="iXc4PCOMzG93QPrR9z8e-45" value="" style="verticalLabelPosition=bottom;shadow=0;dashed=0;align=center;html=1;verticalAlign=top;shape=mxgraph.electrical.logic_gates.logic_gate;operation=or;" parent="1" vertex="1">
          <mxGeometry x="240" y="180.5" width="80" height="39.5" as="geometry" />
        </mxCell>
        <mxCell id="iXc4PCOMzG93QPrR9z8e-47" value="LB" style="text;html=1;align=center;verticalAlign=middle;resizable=1;points=[];autosize=1;strokeColor=none;fillColor=none;strokeWidth=1;" parent="1" vertex="1">
          <mxGeometry x="205" y="176" width="40" height="30" as="geometry" />
        </mxCell>
        <mxCell id="iXc4PCOMzG93QPrR9z8e-49" value="HB" style="text;html=1;align=center;verticalAlign=middle;resizable=1;points=[];autosize=1;strokeColor=none;fillColor=none;strokeWidth=1;" parent="1" vertex="1">
          <mxGeometry x="205" y="195" width="40" height="30" as="geometry" />
        </mxCell>
        <mxCell id="iXc4PCOMzG93QPrR9z8e-71" value="" style="endArrow=none;html=1;rounded=0;" parent="1" edge="1">
          <mxGeometry width="50" height="50" relative="1" as="geometry">
            <mxPoint x="320" y="240" as="sourcePoint" />
            <mxPoint x="240" y="240" as="targetPoint" />
          </mxGeometry>
        </mxCell>
        <mxCell id="iXc4PCOMzG93QPrR9z8e-72" value="HF" style="text;html=1;align=center;verticalAlign=middle;resizable=1;points=[];autosize=1;strokeColor=none;fillColor=none;strokeWidth=1;" parent="1" vertex="1">
          <mxGeometry x="205" y="225" width="40" height="30" as="geometry" />
        </mxCell>
        <mxCell id="iXc4PCOMzG93QPrR9z8e-74" value="FFL" style="text;html=1;align=center;verticalAlign=middle;resizable=1;points=[];autosize=1;strokeColor=none;fillColor=none;strokeWidth=1;" parent="1" vertex="1">
          <mxGeometry x="205" y="260" width="40" height="19" as="geometry" />
        </mxCell>
        <mxCell id="iXc4PCOMzG93QPrR9z8e-75" value="BFL" style="text;html=1;align=center;verticalAlign=middle;resizable=1;points=[];autosize=1;strokeColor=none;fillColor=none;strokeWidth=1;" parent="1" vertex="1">
          <mxGeometry x="200" y="289" width="50" height="21" as="geometry" />
        </mxCell>
        <mxCell id="iXc4PCOMzG93QPrR9z8e-76" value="" style="endArrow=none;html=1;rounded=0;" parent="1" edge="1">
          <mxGeometry width="50" height="50" relative="1" as="geometry">
            <mxPoint x="240" y="270" as="sourcePoint" />
            <mxPoint x="320" y="270" as="targetPoint" />
          </mxGeometry>
        </mxCell>
        <mxCell id="iXc4PCOMzG93QPrR9z8e-77" value="" style="endArrow=none;html=1;rounded=0;entryX=0;entryY=0.75;entryDx=0;entryDy=0;" parent="1" edge="1">
          <mxGeometry width="50" height="50" relative="1" as="geometry">
            <mxPoint x="240" y="299" as="sourcePoint" />
            <mxPoint x="320" y="299.4" as="targetPoint" />
          </mxGeometry>
        </mxCell>
        <mxCell id="iXc4PCOMzG93QPrR9z8e-84" value="" style="endArrow=none;html=1;rounded=0;entryX=0;entryY=0.5;entryDx=0;entryDy=0;entryPerimeter=0;" parent="1" target="iXc4PCOMzG93QPrR9z8e-104" edge="1">
          <mxGeometry width="50" height="50" relative="1" as="geometry">
            <mxPoint x="440" y="240" as="sourcePoint" />
            <mxPoint x="480" y="240" as="targetPoint" />
          </mxGeometry>
        </mxCell>
        <mxCell id="iXc4PCOMzG93QPrR9z8e-85" value="LB&lt;span style=&quot;font-size: 10px;&quot;&gt;led&lt;/span&gt;" style="text;html=1;align=center;verticalAlign=middle;resizable=1;points=[];autosize=1;strokeColor=none;fillColor=none;strokeWidth=1;" parent="1" vertex="1">
          <mxGeometry x="432" y="217" width="50" height="30" as="geometry" />
        </mxCell>
        <mxCell id="iXc4PCOMzG93QPrR9z8e-86" value="" style="endArrow=none;html=1;rounded=0;entryX=0;entryY=0.5;entryDx=0;entryDy=0;entryPerimeter=0;" parent="1" target="iXc4PCOMzG93QPrR9z8e-20" edge="1">
          <mxGeometry width="50" height="50" relative="1" as="geometry">
            <mxPoint x="440" y="279.5" as="sourcePoint" />
            <mxPoint x="480" y="279.5" as="targetPoint" />
          </mxGeometry>
        </mxCell>
        <mxCell id="iXc4PCOMzG93QPrR9z8e-87" value="HB&lt;span style=&quot;font-size: 10px;&quot;&gt;led&lt;/span&gt;" style="text;html=1;align=center;verticalAlign=middle;resizable=1;points=[];autosize=1;strokeColor=none;fillColor=none;strokeWidth=1;" parent="1" vertex="1">
          <mxGeometry x="434" y="254.5" width="50" height="30" as="geometry" />
        </mxCell>
        <mxCell id="iXc4PCOMzG93QPrR9z8e-104" value="" style="verticalLabelPosition=bottom;shadow=0;dashed=0;align=center;html=1;verticalAlign=top;shape=mxgraph.electrical.transistors.nmos;pointerEvents=1;strokeWidth=1;" parent="1" vertex="1">
          <mxGeometry x="501" y="218" width="30" height="44" as="geometry" />
        </mxCell>
        <mxCell id="iXc4PCOMzG93QPrR9z8e-105" value="" style="pointerEvents=1;verticalLabelPosition=bottom;shadow=0;dashed=0;align=center;html=1;verticalAlign=top;shape=mxgraph.electrical.signal_sources.protective_earth;strokeWidth=1;" parent="1" vertex="1">
          <mxGeometry x="520" y="260" width="20" height="15" as="geometry" />
        </mxCell>
        <mxCell id="iXc4PCOMzG93QPrR9z8e-106" value="" style="verticalLabelPosition=bottom;shadow=0;dashed=0;align=center;html=1;verticalAlign=top;shape=mxgraph.electrical.opto_electronics.led_2;pointerEvents=1;direction=south;strokeWidth=1;" parent="1" vertex="1">
          <mxGeometry x="521" y="197" width="21" height="32" as="geometry" />
        </mxCell>
        <mxCell id="iXc4PCOMzG93QPrR9z8e-107" value="" style="pointerEvents=1;verticalLabelPosition=bottom;shadow=0;dashed=0;align=center;html=1;verticalAlign=top;shape=mxgraph.electrical.resistors.resistor_2;direction=south;strokeWidth=1;" parent="1" vertex="1">
          <mxGeometry x="525" y="150" width="10" height="50" as="geometry" />
        </mxCell>
        <mxCell id="iXc4PCOMzG93QPrR9z8e-108" value="V&lt;sub&gt;dd&lt;/sub&gt;" style="verticalLabelPosition=top;verticalAlign=bottom;shape=mxgraph.electrical.signal_sources.vdd;shadow=0;dashed=0;align=center;strokeWidth=1;fontSize=24;html=1;flipV=1;noLabel=1;" parent="1" vertex="1">
          <mxGeometry x="522" y="141" width="16" height="12" as="geometry" />
        </mxCell>
        <mxCell id="iXc4PCOMzG93QPrR9z8e-109" value="V&lt;sub&gt;dd2&lt;/sub&gt;" style="text;html=1;align=center;verticalAlign=middle;resizable=0;points=[];autosize=1;strokeColor=none;fillColor=none;strokeWidth=1;" parent="1" vertex="1">
          <mxGeometry x="508" y="116" width="44" height="30" as="geometry" />
        </mxCell>
        <mxCell id="iXc4PCOMzG93QPrR9z8e-110" value="" style="endArrow=none;html=1;rounded=0;entryX=0.5;entryY=0;entryDx=0;entryDy=0;entryPerimeter=0;exitX=0;exitY=0.5;exitDx=0;exitDy=0;exitPerimeter=0;strokeWidth=1;" parent="1" source="iXc4PCOMzG93QPrR9z8e-107" target="iXc4PCOMzG93QPrR9z8e-108" edge="1">
          <mxGeometry width="50" height="50" relative="1" as="geometry">
            <mxPoint x="500" y="140.5" as="sourcePoint" />
            <mxPoint x="550" y="90.5" as="targetPoint" />
          </mxGeometry>
        </mxCell>
        <mxCell id="iXc4PCOMzG93QPrR9z8e-111" value="" style="endArrow=none;html=1;rounded=0;entryX=1;entryY=0.5;entryDx=0;entryDy=0;entryPerimeter=0;exitX=0;exitY=0.57;exitDx=0;exitDy=0;exitPerimeter=0;strokeWidth=1;" parent="1" source="iXc4PCOMzG93QPrR9z8e-106" target="iXc4PCOMzG93QPrR9z8e-107" edge="1">
          <mxGeometry width="50" height="50" relative="1" as="geometry">
            <mxPoint x="500" y="140.5" as="sourcePoint" />
            <mxPoint x="550" y="90.5" as="targetPoint" />
          </mxGeometry>
        </mxCell>
        <mxCell id="iXc4PCOMzG93QPrR9z8e-112" value="" style="endArrow=none;html=1;rounded=0;exitX=1;exitY=0.57;exitDx=0;exitDy=0;exitPerimeter=0;entryX=1;entryY=0;entryDx=0;entryDy=0;entryPerimeter=0;strokeWidth=1;" parent="1" source="iXc4PCOMzG93QPrR9z8e-106" target="iXc4PCOMzG93QPrR9z8e-104" edge="1">
          <mxGeometry width="50" height="50" relative="1" as="geometry">
            <mxPoint x="500" y="140.5" as="sourcePoint" />
            <mxPoint x="550" y="90.5" as="targetPoint" />
          </mxGeometry>
        </mxCell>
        <mxCell id="iXc4PCOMzG93QPrR9z8e-113" value="" style="endArrow=none;html=1;rounded=0;entryX=1;entryY=1;entryDx=0;entryDy=0;entryPerimeter=0;exitX=0.5;exitY=0;exitDx=0;exitDy=0;exitPerimeter=0;strokeWidth=1;" parent="1" source="iXc4PCOMzG93QPrR9z8e-105" target="iXc4PCOMzG93QPrR9z8e-104" edge="1">
          <mxGeometry width="50" height="50" relative="1" as="geometry">
            <mxPoint x="500" y="140.5" as="sourcePoint" />
            <mxPoint x="550" y="90.5" as="targetPoint" />
          </mxGeometry>
        </mxCell>
        <mxCell id="iXc4PCOMzG93QPrR9z8e-116" value="P&lt;sub&gt;2,1&lt;/sub&gt;" style="text;html=1;align=center;verticalAlign=middle;resizable=1;points=[];autosize=1;strokeColor=none;fillColor=none;" parent="1" vertex="1">
          <mxGeometry x="311" y="185.25" width="50" height="30" as="geometry" />
        </mxCell>
        <mxCell id="iXc4PCOMzG93QPrR9z8e-117" value="P&lt;sub&gt;2,2&lt;/sub&gt;" style="text;html=1;align=center;verticalAlign=middle;resizable=1;points=[];autosize=1;strokeColor=none;fillColor=none;" parent="1" vertex="1">
          <mxGeometry x="311" y="225" width="50" height="30" as="geometry" />
        </mxCell>
        <mxCell id="iXc4PCOMzG93QPrR9z8e-118" value="P&lt;sub&gt;2,3&lt;/sub&gt;" style="text;html=1;align=center;verticalAlign=middle;resizable=1;points=[];autosize=1;strokeColor=none;fillColor=none;" parent="1" vertex="1">
          <mxGeometry x="311" y="254.5" width="50" height="30" as="geometry" />
        </mxCell>
        <mxCell id="iXc4PCOMzG93QPrR9z8e-119" value="P&lt;sub&gt;2,4&lt;/sub&gt;" style="text;html=1;align=center;verticalAlign=middle;resizable=1;points=[];autosize=1;strokeColor=none;fillColor=none;" parent="1" vertex="1">
          <mxGeometry x="311" y="284.5" width="50" height="30" as="geometry" />
        </mxCell>
        <mxCell id="iXc4PCOMzG93QPrR9z8e-120" value="P&lt;sub&gt;2,5&lt;/sub&gt;" style="text;html=1;align=center;verticalAlign=middle;resizable=1;points=[];autosize=1;strokeColor=none;fillColor=none;" parent="1" vertex="1">
          <mxGeometry x="400" y="186" width="50" height="30" as="geometry" />
        </mxCell>
        <mxCell id="iXc4PCOMzG93QPrR9z8e-121" value="P&lt;sub&gt;2,6&lt;/sub&gt;" style="text;html=1;align=center;verticalAlign=middle;resizable=1;points=[];autosize=1;strokeColor=none;fillColor=none;" parent="1" vertex="1">
          <mxGeometry x="400" y="225" width="50" height="30" as="geometry" />
        </mxCell>
        <mxCell id="rGx3f8-kPxFmlMORPi0y-4" value="" style="verticalLabelPosition=bottom;shadow=0;dashed=0;align=center;html=1;verticalAlign=top;shape=mxgraph.electrical.transistors.nmos;pointerEvents=1;strokeWidth=1;" parent="1" vertex="1">
          <mxGeometry x="461" y="178" width="30" height="44" as="geometry" />
        </mxCell>
        <mxCell id="rGx3f8-kPxFmlMORPi0y-5" value="" style="pointerEvents=1;verticalLabelPosition=bottom;shadow=0;dashed=0;align=center;html=1;verticalAlign=top;shape=mxgraph.electrical.signal_sources.protective_earth;strokeWidth=1;" parent="1" vertex="1">
          <mxGeometry x="480" y="220" width="20" height="15" as="geometry" />
        </mxCell>
        <mxCell id="rGx3f8-kPxFmlMORPi0y-6" value="" style="verticalLabelPosition=bottom;shadow=0;dashed=0;align=center;html=1;verticalAlign=top;shape=mxgraph.electrical.opto_electronics.led_2;pointerEvents=1;direction=south;strokeWidth=1;" parent="1" vertex="1">
          <mxGeometry x="481" y="157" width="21" height="32" as="geometry" />
        </mxCell>
        <mxCell id="rGx3f8-kPxFmlMORPi0y-7" value="" style="pointerEvents=1;verticalLabelPosition=bottom;shadow=0;dashed=0;align=center;html=1;verticalAlign=top;shape=mxgraph.electrical.resistors.resistor_2;direction=south;strokeWidth=1;" parent="1" vertex="1">
          <mxGeometry x="485" y="110" width="10" height="50" as="geometry" />
        </mxCell>
        <mxCell id="rGx3f8-kPxFmlMORPi0y-8" value="V&lt;sub&gt;dd&lt;/sub&gt;" style="verticalLabelPosition=top;verticalAlign=bottom;shape=mxgraph.electrical.signal_sources.vdd;shadow=0;dashed=0;align=center;strokeWidth=1;fontSize=24;html=1;flipV=1;noLabel=1;" parent="1" vertex="1">
          <mxGeometry x="482" y="101" width="16" height="12" as="geometry" />
        </mxCell>
        <mxCell id="rGx3f8-kPxFmlMORPi0y-9" value="V&lt;sub&gt;dd2&lt;/sub&gt;" style="text;html=1;align=center;verticalAlign=middle;resizable=0;points=[];autosize=1;strokeColor=none;fillColor=none;strokeWidth=1;" parent="1" vertex="1">
          <mxGeometry x="468" y="76" width="44" height="30" as="geometry" />
        </mxCell>
        <mxCell id="rGx3f8-kPxFmlMORPi0y-10" value="" style="endArrow=none;html=1;rounded=0;entryX=0.5;entryY=0;entryDx=0;entryDy=0;entryPerimeter=0;exitX=0;exitY=0.5;exitDx=0;exitDy=0;exitPerimeter=0;strokeWidth=1;" parent="1" source="rGx3f8-kPxFmlMORPi0y-7" target="rGx3f8-kPxFmlMORPi0y-8" edge="1">
          <mxGeometry width="50" height="50" relative="1" as="geometry">
            <mxPoint x="460" y="100.5" as="sourcePoint" />
            <mxPoint x="510" y="50.5" as="targetPoint" />
          </mxGeometry>
        </mxCell>
        <mxCell id="rGx3f8-kPxFmlMORPi0y-11" value="" style="endArrow=none;html=1;rounded=0;entryX=1;entryY=0.5;entryDx=0;entryDy=0;entryPerimeter=0;exitX=0;exitY=0.57;exitDx=0;exitDy=0;exitPerimeter=0;strokeWidth=1;" parent="1" source="rGx3f8-kPxFmlMORPi0y-6" target="rGx3f8-kPxFmlMORPi0y-7" edge="1">
          <mxGeometry width="50" height="50" relative="1" as="geometry">
            <mxPoint x="460" y="100.5" as="sourcePoint" />
            <mxPoint x="510" y="50.5" as="targetPoint" />
          </mxGeometry>
        </mxCell>
        <mxCell id="rGx3f8-kPxFmlMORPi0y-12" value="" style="endArrow=none;html=1;rounded=0;exitX=1;exitY=0.57;exitDx=0;exitDy=0;exitPerimeter=0;entryX=1;entryY=0;entryDx=0;entryDy=0;entryPerimeter=0;strokeWidth=1;" parent="1" source="rGx3f8-kPxFmlMORPi0y-6" target="rGx3f8-kPxFmlMORPi0y-4" edge="1">
          <mxGeometry width="50" height="50" relative="1" as="geometry">
            <mxPoint x="460" y="100.5" as="sourcePoint" />
            <mxPoint x="510" y="50.5" as="targetPoint" />
          </mxGeometry>
        </mxCell>
        <mxCell id="rGx3f8-kPxFmlMORPi0y-13" value="" style="endArrow=none;html=1;rounded=0;entryX=1;entryY=1;entryDx=0;entryDy=0;entryPerimeter=0;exitX=0.5;exitY=0;exitDx=0;exitDy=0;exitPerimeter=0;strokeWidth=1;" parent="1" source="rGx3f8-kPxFmlMORPi0y-5" target="rGx3f8-kPxFmlMORPi0y-4" edge="1">
          <mxGeometry width="50" height="50" relative="1" as="geometry">
            <mxPoint x="460" y="100.5" as="sourcePoint" />
            <mxPoint x="510" y="50.5" as="targetPoint" />
          </mxGeometry>
        </mxCell>
        <mxCell id="rGx3f8-kPxFmlMORPi0y-14" value="" style="endArrow=none;html=1;rounded=0;exitX=0;exitY=0.5;exitDx=0;exitDy=0;exitPerimeter=0;" parent="1" source="rGx3f8-kPxFmlMORPi0y-4" edge="1">
          <mxGeometry width="50" height="50" relative="1" as="geometry">
            <mxPoint x="480" y="230" as="sourcePoint" />
            <mxPoint x="440" y="200" as="targetPoint" />
          </mxGeometry>
        </mxCell>
        <mxCell id="rGx3f8-kPxFmlMORPi0y-15" value="DL&lt;span style=&quot;font-size: 10px;&quot;&gt;led&lt;/span&gt;" style="text;html=1;align=center;verticalAlign=middle;resizable=1;points=[];autosize=1;strokeColor=none;fillColor=none;strokeWidth=1;" parent="1" vertex="1">
          <mxGeometry x="432" y="175.5" width="50" height="30" as="geometry" />
        </mxCell>
        <mxCell id="rGx3f8-kPxFmlMORPi0y-16" value="" style="endArrow=none;html=1;rounded=0;entryX=0;entryY=0.355;entryDx=0;entryDy=0;entryPerimeter=0;" parent="1" target="iXc4PCOMzG93QPrR9z8e-1" edge="1">
          <mxGeometry width="50" height="50" relative="1" as="geometry">
            <mxPoint x="240" y="160" as="sourcePoint" />
            <mxPoint x="310" y="160" as="targetPoint" />
          </mxGeometry>
        </mxCell>
        <mxCell id="rGx3f8-kPxFmlMORPi0y-17" value="LB" style="text;html=1;align=center;verticalAlign=middle;resizable=1;points=[];autosize=1;strokeColor=none;fillColor=none;strokeWidth=1;" parent="1" vertex="1">
          <mxGeometry x="205" y="145" width="40" height="30" as="geometry" />
        </mxCell>
        <mxCell id="rGx3f8-kPxFmlMORPi0y-18" value="P&lt;sub&gt;1,7&lt;/sub&gt;" style="text;html=1;align=center;verticalAlign=middle;resizable=1;points=[];autosize=1;strokeColor=none;fillColor=none;" parent="1" vertex="1">
          <mxGeometry x="311" y="105" width="50" height="30" as="geometry" />
        </mxCell>
        <mxCell id="rGx3f8-kPxFmlMORPi0y-19" value="P&lt;sub&gt;2,7&lt;/sub&gt;" style="text;html=1;align=center;verticalAlign=middle;resizable=1;points=[];autosize=1;strokeColor=none;fillColor=none;" parent="1" vertex="1">
          <mxGeometry x="400" y="265" width="50" height="30" as="geometry" />
        </mxCell>
        <mxCell id="rGx3f8-kPxFmlMORPi0y-21" value="" style="endArrow=none;html=1;rounded=0;exitX=0;exitY=0.097;exitDx=0;exitDy=0;exitPerimeter=0;" parent="1" source="iXc4PCOMzG93QPrR9z8e-1" edge="1">
          <mxGeometry width="50" height="50" relative="1" as="geometry">
            <mxPoint x="500" y="270" as="sourcePoint" />
            <mxPoint x="240" y="80" as="targetPoint" />
          </mxGeometry>
        </mxCell>
        <mxCell id="rGx3f8-kPxFmlMORPi0y-22" value="BP" style="text;html=1;align=center;verticalAlign=middle;resizable=1;points=[];autosize=1;strokeColor=none;fillColor=none;" parent="1" vertex="1">
          <mxGeometry x="210" y="70" width="30" height="20" as="geometry" />
        </mxCell>
        <mxCell id="rGx3f8-kPxFmlMORPi0y-23" value="P&lt;sub&gt;1,6&lt;/sub&gt;" style="text;html=1;align=center;verticalAlign=middle;resizable=1;points=[];autosize=1;strokeColor=none;fillColor=none;" parent="1" vertex="1">
          <mxGeometry x="311" y="65" width="50" height="30" as="geometry" />
        </mxCell>
        <mxCell id="--DdS3D5ZMRDlKWMTrQ_-1" value="AD&lt;sub&gt;1&lt;/sub&gt;" style="text;html=1;align=center;verticalAlign=middle;resizable=1;points=[];autosize=1;strokeColor=none;fillColor=none;" vertex="1" parent="1">
          <mxGeometry x="313.5" y="326" width="45" height="26" as="geometry" />
        </mxCell>
        <mxCell id="--DdS3D5ZMRDlKWMTrQ_-2" value="V&lt;sub&gt;dd&lt;/sub&gt;" style="verticalLabelPosition=top;verticalAlign=bottom;shape=mxgraph.electrical.signal_sources.vdd;shadow=0;dashed=0;align=center;strokeWidth=1;fontSize=24;html=1;flipV=1;noLabel=1;" vertex="1" parent="1">
          <mxGeometry x="172" y="299" width="16" height="12" as="geometry" />
        </mxCell>
        <mxCell id="--DdS3D5ZMRDlKWMTrQ_-3" value="V&lt;sub&gt;dd&lt;/sub&gt;" style="text;html=1;align=center;verticalAlign=middle;resizable=1;points=[];autosize=1;strokeColor=none;fillColor=none;strokeWidth=1;" vertex="1" parent="1">
          <mxGeometry x="160" y="279" width="40" height="20" as="geometry" />
        </mxCell>
        <mxCell id="--DdS3D5ZMRDlKWMTrQ_-4" value="" style="pointerEvents=1;verticalLabelPosition=bottom;shadow=0;dashed=0;align=center;html=1;verticalAlign=top;shape=mxgraph.electrical.resistors.potentiometer_2;direction=north;" vertex="1" parent="1">
          <mxGeometry x="175" y="309" width="20" height="60" as="geometry" />
        </mxCell>
        <mxCell id="--DdS3D5ZMRDlKWMTrQ_-5" value="" style="pointerEvents=1;verticalLabelPosition=bottom;shadow=0;dashed=0;align=center;html=1;verticalAlign=top;shape=mxgraph.electrical.signal_sources.protective_earth;strokeWidth=1;" vertex="1" parent="1">
          <mxGeometry x="170" y="379" width="20" height="15" as="geometry" />
        </mxCell>
        <mxCell id="--DdS3D5ZMRDlKWMTrQ_-6" value="" style="endArrow=none;html=1;rounded=0;entryX=0;entryY=0.25;entryDx=0;entryDy=0;entryPerimeter=0;exitX=0.5;exitY=0;exitDx=0;exitDy=0;exitPerimeter=0;" edge="1" parent="1" source="--DdS3D5ZMRDlKWMTrQ_-5" target="--DdS3D5ZMRDlKWMTrQ_-4">
          <mxGeometry width="50" height="50" relative="1" as="geometry">
            <mxPoint x="290" y="419" as="sourcePoint" />
            <mxPoint x="340" y="369" as="targetPoint" />
          </mxGeometry>
        </mxCell>
        <mxCell id="--DdS3D5ZMRDlKWMTrQ_-7" value="" style="endArrow=none;html=1;rounded=0;exitX=0.5;exitY=1;exitDx=0;exitDy=0;exitPerimeter=0;entryX=0;entryY=0.932;entryDx=0;entryDy=0;entryPerimeter=0;" edge="1" parent="1" source="--DdS3D5ZMRDlKWMTrQ_-4" target="iXc4PCOMzG93QPrR9z8e-1">
          <mxGeometry width="50" height="50" relative="1" as="geometry">
            <mxPoint x="157" y="330.5" as="sourcePoint" />
            <mxPoint x="310" y="339" as="targetPoint" />
          </mxGeometry>
        </mxCell>
      </root>
    </mxGraphModel>
  </diagram>
</mxfile>
